<?xml version="1.0" encoding="iso-8859-1"?>
<!-- Generator: Adobe Illustrator 19.0.0, SVG Export Plug-In . SVG Version: 6.00 Build 0)  -->
<svg version="1.1" id="Layer_1" xmlns="http://www.w3.org/2000/svg" xmlns:xlink="http://www.w3.org/1999/xlink" x="0px" y="0px"
	 viewBox="0 0 512 512" style="enable-background:new 0 0 512 512;" xml:space="preserve">
<path style="fill:#D8D8D8;" d="M256,264.828c-12.359,0-23.834-1.766-34.428-4.414l16.772,233.931
	C239.228,504.055,246.29,512,256,512c9.71,0,16.772-7.945,17.655-17.655l16.772-233.931
	C279.835,263.945,268.359,264.828,256,264.828"/>
<path style="fill:#25AD87;" d="M388.414,132.414C388.414,59.145,329.269,0,256,0S123.586,59.145,123.586,132.414
	S182.731,264.828,256,264.828S388.414,205.683,388.414,132.414"/>
<path style="fill:#FFFFFF;" d="M247.172,194.207c-2.648,0-4.414-0.883-6.179-2.648l-44.138-44.138
	c-3.531-3.531-3.531-8.828,0-12.359c3.531-3.531,8.828-3.531,12.359,0l36.193,36.193l55.614-87.393
	c2.648-4.414,7.945-5.297,12.359-2.648s5.297,7.945,2.648,12.359l-61.793,97.103c-1.766,2.648-3.531,3.531-6.179,4.414
	C248.055,194.207,247.172,194.207,247.172,194.207z"/>
<g>
</g>
<g>
</g>
<g>
</g>
<g>
</g>
<g>
</g>
<g>
</g>
<g>
</g>
<g>
</g>
<g>
</g>
<g>
</g>
<g>
</g>
<g>
</g>
<g>
</g>
<g>
</g>
<g>
</g>
</svg>
